<?xml version="1.0" encoding="UTF-8" standalone="no"?>
<!DOCTYPE svg PUBLIC "-//W3C//DTD SVG 1.1//EN" "http://www.w3.org/Graphics/SVG/1.1/DTD/svg11.dtd">
<svg width="100%" height="100%" viewBox="0 0 400 400" version="1.1" xmlns="http://www.w3.org/2000/svg"
     xml:space="preserve" style="fill-rule:evenodd;clip-rule:evenodd;stroke-linejoin:round;stroke-miterlimit:1.41421;">
    <g id="rocketbase" transform="matrix(7.33656,0,0,7.33656,-5.66429,-14.0967)">
        <g id="base" transform="matrix(1.18127,0,0,1.18127,-4.69223,-1.07558)">
            <path d="M43.837,29.621L44.113,28.796C43.759,28.497 43.528,28.055 43.528,27.555C43.528,26.656 44.256,25.927 45.157,25.927C46.055,25.927 46.784,26.656 46.784,27.555C46.784,28.45 46.061,29.176 45.167,29.184L40.92,41.868C44.954,43.529 49.115,45.88 50.781,48.692L4.626,48.692C7.867,43.282 17.544,39.412 27.689,39.412C32.153,39.412 36.324,40.161 39.873,41.461L42.109,34.781L34.016,32.268L43.837,29.621Z" style="fill:rgb(31,31,31);"/>
        </g>
        <g id="rocket" transform="matrix(0.857101,0,0,0.857101,3.9797,6.48401)">
            <path d="M16,17.116C14.038,18.259 9.332,21.391 7.553,26.015C7.497,26.161 7.52,26.327 7.612,26.453C7.667,26.526 7.742,26.58 7.824,26.61C7.884,26.632 7.95,26.64 8.016,26.636L13.774,26.19C13.779,26.171 13.778,26.151 13.784,26.133L16,17.116Z" style="fill:rgb(31,31,31);fill-rule:nonzero;"/>
            <path d="M30.852,34.356C32.403,29.655 30.79,24.25 30.036,22.173L25.918,30.551C25.913,30.565 25.906,30.572 25.899,30.586L30.053,34.656C30.1,34.703 30.158,34.738 30.217,34.76C30.225,34.766 30.231,34.768 30.233,34.768C30.471,34.854 30.735,34.731 30.821,34.495C30.841,34.448 30.848,34.401 30.852,34.356Z" style="fill:rgb(31,31,31);fill-rule:nonzero;"/>
            <path d="M33.307,10.727C33.828,7.949 33.536,3.93 31.924,1.682C31.885,1.63 31.854,1.571 31.817,1.521C31.719,1.396 31.612,1.291 31.506,1.18C31.442,1.112 31.381,1.031 31.315,0.967C31.239,0.898 31.155,0.847 31.077,0.783C30.968,0.695 30.86,0.599 30.743,0.524C30.688,0.49 30.624,0.47 30.569,0.44C30.415,0.354 30.26,0.268 30.092,0.207C29.971,0.163 29.846,0.144 29.719,0.114C29.61,0.088 29.502,0.049 29.389,0.031C29.213,0.008 29.034,0.008 28.852,0.009C28.79,0.009 28.729,-0.002 28.666,0.001C28.52,0.009 28.376,0.039 28.231,0.061C28.127,0.077 28.027,0.08 27.924,0.103C27.862,0.116 27.8,0.142 27.736,0.158C25.804,0.653 23.806,2.289 22.319,4.103C22.069,4.405 21.841,4.715 21.625,5.023C21.172,5.666 20.786,6.306 20.506,6.909C20.401,7.131 20.311,7.346 20.235,7.555L15.558,26.592C15.457,26.941 15.644,27.308 15.983,27.432L23.4,30.13C23.742,30.255 24.121,30.093 24.267,29.761L32.936,12.129C33.085,11.719 33.208,11.246 33.307,10.727ZM24.523,15.506C23.13,14.999 22.411,13.459 22.918,12.065C23.425,10.672 24.966,9.953 26.362,10.462C27.753,10.969 28.473,12.509 27.966,13.902C27.457,15.294 25.917,16.011 24.523,15.506Z" style="fill:rgb(31,31,31);fill-rule:nonzero;"/>
            <path d="M20.537,32.153C19.456,33.53 18.381,34.51 17.697,34.26C17.011,34.01 16.816,32.571 16.873,30.819C15.98,30.903 15.244,31.393 14.836,32.512C14.156,34.381 12.824,42.336 14.53,42.959C16.235,43.578 20.331,36.629 21.011,34.76C21.417,33.641 21.165,32.792 20.537,32.153Z" style="fill:rgb(31,31,31);fill-rule:nonzero;"/>
        </g>
    </g>
</svg>
