<?xml version="1.0" encoding="utf-8"?>
<!-- Generator: Adobe Illustrator 25.4.1, SVG Export Plug-In . SVG Version: 6.00 Build 0)  -->
<svg version="1.1" id="logo_icon" xmlns="http://www.w3.org/2000/svg" xmlns:xlink="http://www.w3.org/1999/xlink" x="0px" y="0px"
	 viewBox="0 0 88.20347 103.13895" style="enable-background:new 0 0 88.20347 103.13895;" xml:space="preserve">
<style type="text/css">
	.st0{fill:#1D1D1B;}
</style>
<g>
	<path class="st0" d="M86.26252,98.4809H62.78369c0.02028-0.18768,0.03251-7.83506,0.03251-7.83506H80.3089
		c2.88825,0,5.22969-2.34139,5.22969-5.22969V73.7987c0-2.12812-0.82866-4.12924-2.33434-5.63416L62.55207,47.51235
		c0.08965-3.35101,0.16025-6.70292,0.21835-10.05572c0.57098-10.22535-2.33168-20.77164-9.12249-28.59798
		c-1.74667-2.00966-3.68999-3.89313-6.02508-5.31413c-1.09343-0.61618-2.12698-1.18294-3.52083-1.20867
		c-1.39651,0.0372-2.42029,0.60538-3.50842,1.22933c-2.31898,1.43839-4.2406,3.33513-5.96453,5.35602
		c-0.23768,0.28212-0.46446,0.5723-0.69294,0.86116V2.32902C33.93613,1.04283,32.89368,0,31.60711,0H8.84529
		C7.55872,0,6.51627,1.04283,6.51627,2.32902v64.31921l-1.51629,1.5163c-1.50568,1.50492-2.33433,3.50604-2.33433,5.63416v11.61821
		c0,2.41,1.63257,4.43373,3.85062,5.03925v8.02473H1.94095C0.86893,98.4809,0,99.34992,0,100.4219v0.7761
		c0,1.07198,0.86893,1.94095,1.94095,1.94095h84.32157c1.07192,0,1.94095-0.86897,1.94095-1.94095v-0.7761
		C88.20347,99.34992,87.33444,98.4809,86.26252,98.4809z M26.22484,27.42025c-0.11742,0.69996-0.2174,1.40257-0.29805,2.10769
		l-5.60422,4.89359l-8.01796-7.00129H26.22484z M14.37995,22.7622l5.81981-6.65567l5.81972,6.65567H14.37995z M25.85477,45.36353
		c0.00114,0.05364,0.0019,0.10723,0.00303,0.16087H14.18975l5.90274-6.75982L25.85477,45.36353z M25.74522,39.15668
		l-3.40152-2.97028l3.3584-3.84607c-0.00237,0.05364-0.00758,0.10709-0.00976,0.16072
		C25.6966,34.71973,25.71726,36.93825,25.74522,39.15668z M29.34973,17.26118c-0.25502,0.55136-0.49469,1.10945-0.72365,1.67219
		L22.45003,13.533l6.82805-7.80876v10.98909C29.27808,16.90296,29.30699,17.08468,29.34973,17.26118z M28.09907,4.65805
		l-7.89931,6.90723l-7.89931-6.90723H28.09907z M11.17431,5.78484l6.77508,7.74816l-6.77508,5.9242V5.78484z M11.17431,28.55135
		l6.86596,7.86302l-6.86596,5.99537V28.55135z M11.17431,50.18245h11.80775L11.17431,61.99019V50.18245z M11.17431,90.64584
		h14.21372c0,0,0.01223,7.64738,0.03251,7.83506H11.17431V90.64584z M46.44024,98.4809
		c0.02246-2.51576,0.01422-5.03158-0.03828-7.54734c-0.03857-3.03334-0.12301-6.06664-0.23664-9.09998
		c-0.22109-6.06664-0.52331-12.13327-1.35386-18.19991c-0.04264-0.31022-0.28687-0.56771-0.6123-0.61225
		c-0.39177-0.05368-0.75284,0.22048-0.80648,0.61225c-0.83064,6.06664-1.13276,12.13327-1.35386,18.19991
		c-0.11372,3.03335-0.19806,6.06664-0.23673,9.09998c-0.05241,2.51576-0.06075,5.03158-0.03829,7.54734H30.61697
		c-0.31397,0-0.57088-0.25687-0.57088-0.57088v-9.98122c0-1.07198-0.86903-1.941-1.94095-1.941H7.89458
		c-0.31397,0-0.57088-0.25687-0.57088-0.57088V73.7987c0-0.87789,0.34875-1.71986,0.96957-2.34064l2.19682-2.19682
		c0.00133-0.00133,0.00265-0.00266,0.00398-0.00398l15.57516-15.57521c0.24289,7.49484,0.5924,14.98897,1.02539,22.48291
		c0.01895,0.30952,0.26592,0.56364,0.58339,0.5834c0.34354,0.02137,0.6394-0.23981,0.66072-0.5834
		c0.85547-13.70747,1.19948-27.41712,1.43792-41.12767c0.06861-8.33055,3.02614-16.69741,8.5081-22.98021
		c1.68593-1.83618,3.52273-3.7423,5.80873-4.68278c2.27046,0.9728,4.08963,2.88925,5.75281,4.74538
		c1.94171,2.25989,3.54102,4.83669,4.84777,7.54351c2.7045,5.49566,3.60252,11.70544,3.51003,17.7934
		c0.22403,12.91653,0.61675,25.82018,1.68403,38.70838c0.02435,0.28635,0.2518,0.52236,0.54776,0.54776
		c0.33093,0.02843,0.62225-0.21683,0.65068-0.54776c0.61429-7.41737,1.00076-14.8399,1.2644-22.26689l17.55999,17.55999
		c0.62083,0.62078,0.96957,1.46275,0.96957,2.34064v11.61745c0,0.31572-0.25597,0.57164-0.57164,0.57164H60.09909
		c-1.07202,0-1.94095,0.86903-1.94095,1.941v9.98122c0,0.31402-0.25692,0.57088-0.57088,0.57088H46.44024z"/>
</g>
</svg>
