<?xml version="1.0" encoding="UTF-8" standalone="no"?><!DOCTYPE svg PUBLIC "-//W3C//DTD SVG 1.1//EN"
        "http://www.w3.org/Graphics/SVG/1.1/DTD/svg11.dtd">
<svg width="100%" height="100%" viewBox="0 0 900 400" version="1.1" xmlns="http://www.w3.org/2000/svg"  xml:space="preserve"  style="fill-rule:evenodd;clip-rule:evenodd;stroke-linejoin:round;stroke-miterlimit:1.41421;"><g><g id="rest-smaller"><path d="M61.638,164.046l0,12.197l-9.327,0l-7.174,7.174l2.869,38.025l-10.043,9.327l10.043,9.327l-2.869,38.025l7.174,7.174l9.327,0l0,12.197l-15.067,0l-14.348,-15.784l2.87,-38.742l-8.61,-7.892l0,-8.61l8.61,-7.892l-2.87,-38.743l14.348,-15.783l15.067,0Z" style="fill:#1ab88a;"/><path d="M484.744,164.046l0,12.197l9.327,0l7.174,7.174l-2.87,38.025l10.045,9.327l-10.045,9.327l2.87,38.025l-7.174,7.174l-9.327,0l0,12.197l15.066,0l14.35,-15.784l-2.87,-38.742l8.609,-7.892l0,-8.61l-8.609,-7.892l2.87,-38.743l-14.35,-15.783l-15.066,0Z" style="fill:#1ab88a;"/><path d="M184.61,193.369l0,29.503l-14.156,14.155l-7.748,0l16.688,33.078l9.536,0l0,12.815l-32.035,0l0,-12.815l8.94,0l-16.689,-33.078l-15.197,0l0,33.078l9.089,0l0,12.815l-32.782,0l0,-12.815l10.878,0l0,-78.524l-10.878,0l0,-12.963l59.751,0l14.603,14.751Zm-50.661,-1.788l0,35.612l30.396,0l7.45,-7.45l0,-20.711l-7.45,-7.451l-30.396,0Z" style="fill:#029fc6;fill-rule:nonzero;"/><path d="M271.924,205.587l-10.877,0l0,-14.006l-38.74,0l0,31.737l26.373,0l0,-7.003l9.238,0l0,23.692l-9.238,0l0,-7.003l-26.373,0l0,37.101l38.889,0l0,-14.005l10.878,0l0,26.82l-73.458,0l0,-12.815l10.877,0l0,-78.524l-10.877,0l0,-12.963l73.308,0l0,26.969Z" style="fill:#029fc6;fill-rule:nonzero;"/><path d="M349.853,193.369l0,14.751l-12.814,0l0,-9.088l-7.599,-7.6l-24.288,0l-7.599,7.6l0,18.475l5.662,5.365l35.761,0l11.92,11.622l0,32.93l-15.497,15.496l-35.164,0l-15.496,-15.496l0,-19.073l12.814,0l0,13.709l8.046,8.045l24.437,0l7.897,-8.045l0,-21.606l-5.364,-5.513l-35.761,0l-12.069,-11.92l0,-29.652l14.751,-14.751l35.761,0l14.602,14.751Z" style="fill:#029fc6;fill-rule:nonzero;"/><path d="M436.125,209.164l-11.026,0l0,-18.328l-20.413,0l0,79.269l12.367,0l0,12.815l-37.549,0l0,-12.815l12.368,0l0,-79.269l-20.414,0l0,18.328l-11.026,0l0,-30.546l75.693,0l0,30.546Z" style="fill:#029fc6;fill-rule:nonzero;"/></g><g id="rocket"><path d="M99.561,96.496c-9.42,5.488 -32.014,20.525 -40.555,42.725c-0.269,0.701 -0.158,1.498 0.283,2.103c0.264,0.35 0.624,0.609 1.018,0.753c0.288,0.106 0.605,0.144 0.922,0.125l27.645,-2.141c0.024,-0.091 0.019,-0.187 0.048,-0.274l10.639,-43.291Z" style="fill:#1f1f1f;fill-rule:nonzero;"/><path d="M170.867,179.267c7.446,-22.57 -0.298,-48.52 -3.918,-58.492l-19.771,40.224c-0.024,0.067 -0.058,0.1 -0.091,0.168l19.944,19.54c0.225,0.226 0.504,0.394 0.787,0.499c0.038,0.029 0.067,0.039 0.077,0.039c1.142,0.413 2.41,-0.178 2.823,-1.311c0.096,-0.226 0.129,-0.451 0.149,-0.667Z" style="fill:#1f1f1f;fill-rule:nonzero;"/><path d="M182.653,65.822c2.502,-13.338 1.1,-32.633 -6.64,-43.426c-0.187,-0.25 -0.336,-0.533 -0.513,-0.773c-0.471,-0.6 -0.985,-1.104 -1.493,-1.637c-0.308,-0.327 -0.601,-0.716 -0.918,-1.023c-0.364,-0.331 -0.768,-0.576 -1.142,-0.883c-0.523,-0.423 -1.042,-0.884 -1.604,-1.244c-0.264,-0.163 -0.571,-0.259 -0.835,-0.403c-0.739,-0.413 -1.484,-0.826 -2.29,-1.119c-0.581,-0.211 -1.181,-0.302 -1.791,-0.446c-0.523,-0.125 -1.042,-0.312 -1.584,-0.399c-0.845,-0.11 -1.705,-0.11 -2.579,-0.105c-0.297,0 -0.59,-0.053 -0.893,-0.039c-0.701,0.039 -1.392,0.183 -2.088,0.288c-0.499,0.077 -0.979,0.092 -1.474,0.202c-0.298,0.062 -0.595,0.187 -0.903,0.264c-9.275,2.377 -18.868,10.231 -26.007,18.94c-1.2,1.45 -2.295,2.939 -3.332,4.417c-2.175,3.087 -4.028,6.16 -5.372,9.055c-0.505,1.066 -0.937,2.098 -1.302,3.102l-22.454,91.398c-0.485,1.676 0.413,3.438 2.04,4.033l35.61,12.953c1.642,0.6 3.461,-0.177 4.162,-1.771l41.621,-84.653c0.715,-1.969 1.306,-4.239 1.781,-6.731Zm-42.173,22.944c-6.687,-2.434 -10.139,-9.828 -7.705,-16.52c2.434,-6.688 9.832,-10.14 16.535,-7.697c6.678,2.435 10.135,9.828 7.701,16.516c-2.444,6.683 -9.838,10.126 -16.531,7.701Z" style="fill:#1f1f1f;fill-rule:nonzero;"/><path d="M121.343,168.69c-5.19,6.611 -10.351,11.316 -13.635,10.116c-3.293,-1.2 -4.23,-8.109 -3.956,-16.521c-4.287,0.404 -7.821,2.756 -9.78,8.128c-3.264,8.974 -9.659,47.166 -1.469,50.157c8.186,2.972 27.851,-30.39 31.116,-39.364c1.949,-5.372 0.739,-9.448 -2.276,-12.516Z" style="fill:#1f1f1f;fill-rule:nonzero;"/></g><g><path id="Rectangle-path" d="M873.517,166.792c0,-5.305 -2.107,-10.392 -5.858,-14.142c-3.751,-3.751 -8.838,-5.858 -14.142,-5.858c-59.73,0 -236.358,0 -296.088,0c-5.305,0 -10.392,2.107 -14.142,5.858c-3.751,3.75 -5.858,8.837 -5.858,14.142c0,44.53 0,147.954 0,147.954c0,0 243.756,0 316.088,0c5.304,0 10.391,-2.107 14.142,-5.858c3.751,-3.751 5.858,-8.838 5.858,-14.142c0,-32.314 0,-95.64 0,-127.954Z"/><g id="Shape"><g><path d="M628.004,211.202l-0.084,-22.59l-12.603,0l0.084,22.59l6.302,8.65l6.301,-8.65Z" style="fill:#fff;"/><path d="M615.401,249.916l0,22.673l12.603,0l0,-22.673l-6.301,-8.65l-6.302,8.65Z" style="fill:#fff;"/><path d="M628.004,249.916l13.276,18.307l10.167,-7.39l-13.276,-18.307l-10.167,-3.275l0,10.665Z" style="fill:#00f2e6;"/><path d="M615.401,211.202l-13.359,-18.307l-10.167,7.39l13.275,18.307l10.251,3.275l0,-10.665Z" style="fill:#00f2e6;"/><path d="M605.15,218.592l-21.509,-6.97l-3.865,11.925l21.509,7.054l10.167,-3.359l-6.302,-8.65Z" style="fill:#00b9f1;"/><path d="M631.869,233.876l6.302,8.65l21.51,6.97l3.865,-11.925l-21.51,-6.97l-10.167,3.275Z" style="fill:#00b9f1;"/><path d="M642.036,230.601l21.51,-7.054l-3.865,-11.925l-21.51,6.97l-6.302,8.65l10.167,3.359Z" style="fill:#d63aff;"/><path d="M601.285,230.601l-21.509,6.97l3.865,11.925l21.509,-6.97l6.302,-8.65l-10.167,-3.275Z" style="fill:#d63aff;"/><path d="M605.15,242.526l-13.275,18.307l10.167,7.39l13.359,-18.307l0,-10.665l-10.251,3.275Z" style="fill:#fb015b;"/><path d="M638.171,218.592l13.276,-18.307l-10.167,-7.39l-13.276,18.307l0,10.665l10.167,-3.275Z" style="fill:#fb015b;"/></g><path d="M710.598,210.027l0,29.392c0,6.466 -5.293,11.756 -11.763,11.756l0,-5.878c3.277,0 5.882,-2.603 5.882,-5.878l0,-29.392l5.881,0Zm107.38,5.878l13.276,0l0,-5.878l-32.349,0l0,5.878l13.192,0l0,35.27l5.881,0l0,-35.27Zm-36.801,-5.878l0,29.392c0,3.275 -2.605,5.878 -5.882,5.878c-3.277,0 -5.881,-2.603 -5.881,-5.878l0,-17.636c0,-6.466 -5.294,-11.756 -11.763,-11.756c-6.47,0 -11.764,5.29 -11.764,11.756l0,17.636c0,3.275 -2.604,5.878 -5.881,5.878c-3.277,0 -5.882,-2.603 -5.882,-5.878l0,-29.392l-5.881,0l0,29.392c0,6.466 5.293,11.756 11.763,11.756c6.47,0 11.763,-5.29 11.763,-11.756l0,-17.636c0,-3.275 2.605,-5.878 5.882,-5.878c3.276,0 5.881,2.603 5.881,5.878l0,17.636c0,6.466 5.293,11.756 11.763,11.756c6.47,0 11.763,-5.29 11.763,-11.756l0,-29.392l-5.881,0Z" style="fill:#fff;"/></g></g></g><rect id="hr" x="56.06" y="334.281" width="787.881" height="0.786" style="fill:#444;"/><path id="slogan-auth" d="M156.494,356.265c1.359,0 2.176,0.642 2.452,1.925l0.053,0l0.518,-1.775l0.703,0l-2.012,9.554l-0.721,0l0.395,-2.409l-0.052,0c-0.493,0.832 -1.04,1.471 -1.644,1.916c-0.603,0.446 -1.298,0.668 -2.083,0.668c-1.646,0 -2.47,-1.095 -2.47,-3.287c0,-1.154 0.22,-2.256 0.659,-3.304c0.44,-1.049 1.027,-1.859 1.763,-2.431c0.735,-0.571 1.548,-0.857 2.439,-0.857Zm-2.189,9.088c0.522,0 1.042,-0.181 1.56,-0.545c0.519,-0.363 0.985,-0.849 1.398,-1.459c0.413,-0.609 0.728,-1.283 0.945,-2.021c0.216,-0.738 0.325,-1.362 0.325,-1.872c0,-0.463 -0.076,-0.878 -0.229,-1.244c-0.152,-0.366 -0.378,-0.656 -0.677,-0.87c-0.298,-0.214 -0.67,-0.321 -1.116,-0.321c-0.726,0 -1.383,0.241 -1.969,0.721c-0.585,0.481 -1.066,1.2 -1.441,2.158c-0.375,0.958 -0.562,1.911 -0.562,2.861c0,0.89 0.146,1.545 0.439,1.964c0.293,0.419 0.735,0.628 1.327,0.628Z" style="fill:#444;fill-rule:nonzero;"/><path d="M166.452,356.265c1.347,0 2.165,0.642 2.452,1.925l0.035,0c0.07,-0.386 0.489,-2.352 1.257,-5.897l0.87,0l-2.9,13.676l-0.721,0l0.395,-2.409l-0.052,0c-1.014,1.723 -2.256,2.584 -3.727,2.584c-1.646,0 -2.47,-1.095 -2.47,-3.287c0,-1.131 0.21,-2.215 0.629,-3.252c0.419,-1.037 0.997,-1.853 1.736,-2.447c0.738,-0.595 1.57,-0.893 2.496,-0.893Zm-2.189,9.088c0.522,0 1.045,-0.183 1.569,-0.549c0.524,-0.366 0.993,-0.858 1.406,-1.477c0.413,-0.618 0.725,-1.294 0.936,-2.03c0.211,-0.735 0.317,-1.349 0.317,-1.841c0,-0.738 -0.18,-1.329 -0.541,-1.771c-0.36,-0.442 -0.854,-0.664 -1.481,-0.664c-0.726,0 -1.383,0.244 -1.969,0.73c-0.585,0.486 -1.066,1.197 -1.441,2.131c-0.375,0.935 -0.562,1.894 -0.562,2.879c0,1.728 0.588,2.592 1.766,2.592Z" style="fill:#444;fill-rule:nonzero;"/><path d="M176.41,356.265c1.347,0 2.165,0.642 2.452,1.925l0.035,0c0.07,-0.386 0.489,-2.352 1.257,-5.897l0.87,0l-2.9,13.676l-0.721,0l0.395,-2.409l-0.052,0c-1.014,1.723 -2.256,2.584 -3.727,2.584c-1.646,0 -2.47,-1.095 -2.47,-3.287c0,-1.131 0.21,-2.215 0.629,-3.252c0.419,-1.037 0.997,-1.853 1.736,-2.447c0.738,-0.595 1.57,-0.893 2.496,-0.893Zm-2.189,9.088c0.522,0 1.045,-0.183 1.569,-0.549c0.524,-0.366 0.993,-0.858 1.406,-1.477c0.413,-0.618 0.725,-1.294 0.936,-2.03c0.211,-0.735 0.317,-1.349 0.317,-1.841c0,-0.738 -0.18,-1.329 -0.541,-1.771c-0.36,-0.442 -0.854,-0.664 -1.481,-0.664c-0.726,0 -1.383,0.244 -1.969,0.73c-0.585,0.486 -1.066,1.197 -1.441,2.131c-0.375,0.935 -0.562,1.894 -0.562,2.879c0,1.728 0.588,2.592 1.766,2.592Z" style="fill:#444;fill-rule:nonzero;"/><path d="M191.536,365.969l1.292,-5.924c0.146,-0.733 0.219,-1.207 0.219,-1.424c0,-1.066 -0.451,-1.6 -1.353,-1.6c-0.621,0 -1.207,0.198 -1.758,0.594c-0.551,0.395 -1.017,0.947 -1.397,1.656c-0.381,0.709 -0.674,1.55 -0.879,2.523l-0.879,4.175l-0.862,0l2.031,-9.554l0.703,0l-0.29,1.846l0.053,0c0.468,-0.663 1,-1.161 1.595,-1.495c0.594,-0.334 1.217,-0.501 1.867,-0.501c0.622,0 1.099,0.197 1.433,0.589c0.334,0.393 0.51,0.964 0.527,1.714l0.053,0c0.451,-0.756 0.982,-1.328 1.591,-1.718c0.609,-0.39 1.26,-0.585 1.951,-0.585c0.686,0 1.22,0.181 1.604,0.541c0.384,0.36 0.576,0.877 0.576,1.551c0,0.17 -0.008,0.336 -0.022,0.497c-0.015,0.161 -0.072,0.511 -0.172,1.05l-1.336,6.065l-0.878,0l1.309,-5.977c0.147,-0.703 0.22,-1.219 0.22,-1.547c0,-0.451 -0.126,-0.801 -0.378,-1.05c-0.252,-0.249 -0.601,-0.374 -1.046,-0.374c-0.92,0 -1.733,0.403 -2.439,1.209c-0.706,0.805 -1.2,1.868 -1.481,3.186l-0.958,4.553l-0.896,0Z" style="fill:#444;fill-rule:nonzero;"/><path d="M202.206,365.969l-0.862,0l2.031,-9.554l0.843,0l-2.012,9.554Zm1.546,-12.006c0,-0.323 0.065,-0.58 0.194,-0.774c0.129,-0.193 0.304,-0.29 0.527,-0.29c0.334,0 0.501,0.211 0.501,0.633c0,0.334 -0.064,0.598 -0.193,0.791c-0.129,0.193 -0.296,0.29 -0.501,0.29c-0.17,0 -0.301,-0.057 -0.391,-0.171c-0.091,-0.115 -0.137,-0.274 -0.137,-0.479Z" style="fill:#444;fill-rule:nonzero;"/><path d="M211.118,363.376c0,0.844 -0.302,1.516 -0.906,2.017c-0.603,0.501 -1.423,0.751 -2.461,0.751c-1.013,0 -1.907,-0.219 -2.68,-0.659l0,-0.94c0.433,0.269 0.882,0.477 1.345,0.624c0.462,0.146 0.896,0.22 1.3,0.22c0.809,0 1.427,-0.169 1.855,-0.506c0.428,-0.337 0.641,-0.816 0.641,-1.437c0,-0.246 -0.045,-0.463 -0.136,-0.65c-0.091,-0.188 -0.237,-0.368 -0.439,-0.541c-0.202,-0.173 -0.591,-0.423 -1.165,-0.751c-0.867,-0.469 -1.453,-0.895 -1.758,-1.279c-0.304,-0.384 -0.457,-0.851 -0.457,-1.402c0,-0.75 0.289,-1.364 0.866,-1.841c0.577,-0.478 1.337,-0.717 2.281,-0.717c0.439,0 0.904,0.052 1.393,0.154c0.489,0.103 0.901,0.239 1.235,0.409l-0.308,0.773c-0.797,-0.375 -1.57,-0.562 -2.32,-0.562c-0.68,0 -1.225,0.155 -1.635,0.466c-0.41,0.31 -0.615,0.715 -0.615,1.213c0,0.322 0.05,0.58 0.149,0.773c0.1,0.193 0.277,0.394 0.532,0.602c0.255,0.208 0.605,0.432 1.05,0.672c0.668,0.37 1.141,0.673 1.42,0.91c0.278,0.237 0.483,0.491 0.615,0.76c0.132,0.27 0.198,0.583 0.198,0.941Z" style="fill:#444;fill-rule:nonzero;"/><path d="M218.386,363.376c0,0.844 -0.302,1.516 -0.905,2.017c-0.604,0.501 -1.424,0.751 -2.461,0.751c-1.014,0 -1.907,-0.219 -2.681,-0.659l0,-0.94c0.434,0.269 0.882,0.477 1.345,0.624c0.463,0.146 0.897,0.22 1.301,0.22c0.808,0 1.427,-0.169 1.854,-0.506c0.428,-0.337 0.642,-0.816 0.642,-1.437c0,-0.246 -0.045,-0.463 -0.136,-0.65c-0.091,-0.188 -0.238,-0.368 -0.44,-0.541c-0.202,-0.173 -0.59,-0.423 -1.164,-0.751c-0.867,-0.469 -1.453,-0.895 -1.758,-1.279c-0.305,-0.384 -0.457,-0.851 -0.457,-1.402c0,-0.75 0.288,-1.364 0.866,-1.841c0.577,-0.478 1.337,-0.717 2.28,-0.717c0.44,0 0.904,0.052 1.393,0.154c0.49,0.103 0.901,0.239 1.235,0.409l-0.307,0.773c-0.797,-0.375 -1.571,-0.562 -2.321,-0.562c-0.679,0 -1.224,0.155 -1.634,0.466c-0.411,0.31 -0.616,0.715 -0.616,1.213c0,0.322 0.05,0.58 0.15,0.773c0.099,0.193 0.277,0.394 0.532,0.602c0.254,0.208 0.604,0.432 1.05,0.672c0.668,0.37 1.141,0.673 1.419,0.91c0.279,0.237 0.484,0.491 0.615,0.76c0.132,0.27 0.198,0.583 0.198,0.941Z" style="fill:#444;fill-rule:nonzero;"/><path d="M220.917,365.969l-0.861,0l2.03,-9.554l0.844,0l-2.013,9.554Zm1.547,-12.006c0,-0.323 0.065,-0.58 0.194,-0.774c0.129,-0.193 0.304,-0.29 0.527,-0.29c0.334,0 0.501,0.211 0.501,0.633c0,0.334 -0.064,0.598 -0.193,0.791c-0.129,0.193 -0.296,0.29 -0.501,0.29c-0.17,0 -0.301,-0.057 -0.391,-0.171c-0.091,-0.115 -0.137,-0.274 -0.137,-0.479Z" style="fill:#444;fill-rule:nonzero;"/><path d="M230.278,365.969l1.309,-6.082c0.123,-0.539 0.185,-0.997 0.185,-1.372c0,-0.468 -0.127,-0.834 -0.382,-1.098c-0.255,-0.264 -0.649,-0.396 -1.182,-0.396c-0.657,0 -1.273,0.197 -1.851,0.589c-0.577,0.393 -1.063,0.942 -1.459,1.648c-0.395,0.706 -0.698,1.546 -0.909,2.518l-0.897,4.193l-0.861,0l2.03,-9.554l0.721,0l-0.325,1.942l0.052,0c0.961,-1.394 2.18,-2.092 3.657,-2.092c0.761,0 1.333,0.188 1.714,0.563c0.38,0.375 0.571,0.914 0.571,1.617c0,0.41 -0.07,0.944 -0.211,1.6l-1.301,5.924l-0.861,0Z" style="fill:#444;fill-rule:nonzero;"/><path d="M243.277,356.415l-0.15,0.694l-2.135,0.097c0.152,0.164 0.279,0.41 0.382,0.738c0.103,0.328 0.154,0.662 0.154,1.002c0,0.639 -0.16,1.244 -0.479,1.815c-0.32,0.571 -0.753,0.998 -1.301,1.279c-0.548,0.281 -1.173,0.422 -1.876,0.422c-0.37,0 -0.595,-0.027 -0.677,-0.079c-0.469,0.193 -0.832,0.407 -1.09,0.641c-0.258,0.235 -0.387,0.472 -0.387,0.712c0,0.24 0.093,0.429 0.277,0.567c0.185,0.138 0.517,0.23 0.998,0.277l1.063,0.097c2.027,0.181 3.041,0.955 3.041,2.32c0,0.656 -0.19,1.235 -0.571,1.736c-0.381,0.501 -0.929,0.886 -1.644,1.156c-0.715,0.269 -1.567,0.404 -2.557,0.404c-1.09,0 -1.944,-0.211 -2.562,-0.633c-0.618,-0.422 -0.928,-1.017 -0.928,-1.784c0,-1.383 0.906,-2.361 2.716,-2.936c-0.457,-0.246 -0.685,-0.606 -0.685,-1.081c0,-0.72 0.559,-1.312 1.678,-1.775c-0.416,-0.211 -0.739,-0.52 -0.971,-0.927c-0.231,-0.408 -0.347,-0.869 -0.347,-1.385c0,-0.65 0.157,-1.248 0.47,-1.793c0.314,-0.545 0.747,-0.972 1.301,-1.283c0.554,-0.31 1.159,-0.466 1.815,-0.466c0.404,0 0.835,0.062 1.292,0.185l3.173,0Zm-9.545,11.373c0,0.592 0.237,1.031 0.712,1.318c0.474,0.287 1.131,0.431 1.969,0.431c1.189,0 2.118,-0.218 2.786,-0.655c0.668,-0.436 1.002,-1.035 1.002,-1.797c0,-0.498 -0.183,-0.881 -0.55,-1.147c-0.366,-0.267 -1.006,-0.435 -1.92,-0.506l-1.406,-0.131c-0.92,0.263 -1.582,0.599 -1.987,1.006c-0.404,0.407 -0.606,0.901 -0.606,1.481Zm2.382,-8.068c0,0.656 0.171,1.154 0.514,1.494c0.343,0.34 0.825,0.509 1.446,0.509c0.515,0 0.967,-0.108 1.353,-0.325c0.387,-0.217 0.687,-0.55 0.901,-1.002c0.214,-0.451 0.321,-0.946 0.321,-1.485c0,-0.609 -0.164,-1.083 -0.492,-1.419c-0.328,-0.337 -0.788,-0.506 -1.38,-0.506c-0.545,0 -1.017,0.126 -1.415,0.378c-0.399,0.252 -0.706,0.592 -0.923,1.02c-0.217,0.427 -0.325,0.873 -0.325,1.336Z" style="fill:#444;fill-rule:nonzero;"/><path d="M253.182,356.265c1.36,0 2.177,0.642 2.452,1.925l0.053,0l0.519,-1.775l0.703,0l-2.013,9.554l-0.721,0l0.396,-2.409l-0.053,0c-0.492,0.832 -1.04,1.471 -1.643,1.916c-0.604,0.446 -1.298,0.668 -2.083,0.668c-1.647,0 -2.47,-1.095 -2.47,-3.287c0,-1.154 0.22,-2.256 0.659,-3.304c0.439,-1.049 1.027,-1.859 1.762,-2.431c0.736,-0.571 1.549,-0.857 2.439,-0.857Zm-2.188,9.088c0.521,0 1.041,-0.181 1.56,-0.545c0.518,-0.363 0.984,-0.849 1.397,-1.459c0.413,-0.609 0.728,-1.283 0.945,-2.021c0.217,-0.738 0.325,-1.362 0.325,-1.872c0,-0.463 -0.076,-0.878 -0.228,-1.244c-0.153,-0.366 -0.378,-0.656 -0.677,-0.87c-0.299,-0.214 -0.671,-0.321 -1.116,-0.321c-0.727,0 -1.383,0.241 -1.969,0.721c-0.586,0.481 -1.066,1.2 -1.441,2.158c-0.375,0.958 -0.563,1.911 -0.563,2.861c0,0.89 0.147,1.545 0.44,1.964c0.292,0.419 0.735,0.628 1.327,0.628Z" style="fill:#444;fill-rule:nonzero;"/><path d="M260.732,356.415l-1.336,6.135c-0.129,0.621 -0.193,1.084 -0.193,1.388c0,0.434 0.139,0.778 0.417,1.033c0.278,0.255 0.684,0.382 1.217,0.382c0.645,0 1.253,-0.192 1.824,-0.575c0.571,-0.384 1.052,-0.932 1.442,-1.644c0.389,-0.712 0.681,-1.531 0.874,-2.456l0.923,-4.263l0.861,0l-2.03,9.554l-0.703,0l0.246,-1.802l-0.053,0c-0.978,1.295 -2.159,1.942 -3.542,1.942c-0.767,0 -1.349,-0.181 -1.744,-0.545c-0.396,-0.363 -0.594,-0.893 -0.594,-1.591c0,-0.351 0.065,-0.849 0.194,-1.494l1.318,-6.064l0.879,0Z" style="fill:#444;fill-rule:nonzero;"/><path d="M273.529,356.415l-0.158,0.712l-2.488,0l-1.186,5.581c-0.129,0.58 -0.194,1.06 -0.194,1.441c0,0.815 0.37,1.222 1.108,1.222c0.398,0 0.844,-0.076 1.336,-0.229l0,0.756c-0.592,0.164 -1.09,0.246 -1.494,0.246c-0.58,0 -1.029,-0.159 -1.345,-0.479c-0.316,-0.319 -0.475,-0.783 -0.475,-1.393c0,-0.427 0.085,-1.031 0.255,-1.81l1.134,-5.335l-1.6,0l0.123,-0.589l1.618,-0.149l0.852,-2.224l0.484,0l-0.484,2.25l2.514,0Z" style="fill:#444;fill-rule:nonzero;"/><path d="M279.558,365.969l1.31,-6.082c0.123,-0.539 0.184,-0.997 0.184,-1.372c0,-0.468 -0.127,-0.834 -0.382,-1.098c-0.255,-0.264 -0.649,-0.396 -1.182,-0.396c-0.656,0 -1.273,0.197 -1.85,0.589c-0.577,0.393 -1.064,0.944 -1.459,1.653c-0.396,0.709 -0.699,1.546 -0.91,2.513l-0.896,4.193l-0.862,0l2.918,-13.676l0.844,0l-0.756,3.612c-0.258,1.172 -0.451,1.989 -0.58,2.452l0.053,0c0.457,-0.662 1.003,-1.176 1.639,-1.542c0.636,-0.366 1.308,-0.55 2.017,-0.55c0.727,0 1.289,0.191 1.687,0.572c0.399,0.381 0.598,0.917 0.598,1.608c0,0.41 -0.07,0.944 -0.211,1.6l-1.301,5.924l-0.861,0Z" style="fill:#444;fill-rule:nonzero;"/><path d="M293.832,363.376c0,0.844 -0.302,1.516 -0.906,2.017c-0.603,0.501 -1.424,0.751 -2.461,0.751c-1.013,0 -1.907,-0.219 -2.68,-0.659l0,-0.94c0.433,0.269 0.882,0.477 1.344,0.624c0.463,0.146 0.897,0.22 1.301,0.22c0.809,0 1.427,-0.169 1.855,-0.506c0.427,-0.337 0.641,-0.816 0.641,-1.437c0,-0.246 -0.045,-0.463 -0.136,-0.65c-0.091,-0.188 -0.237,-0.368 -0.439,-0.541c-0.203,-0.173 -0.591,-0.423 -1.165,-0.751c-0.867,-0.469 -1.453,-0.895 -1.758,-1.279c-0.304,-0.384 -0.457,-0.851 -0.457,-1.402c0,-0.75 0.289,-1.364 0.866,-1.841c0.577,-0.478 1.337,-0.717 2.281,-0.717c0.439,0 0.903,0.052 1.393,0.154c0.489,0.103 0.901,0.239 1.235,0.409l-0.308,0.773c-0.797,-0.375 -1.57,-0.562 -2.32,-0.562c-0.68,0 -1.225,0.155 -1.635,0.466c-0.41,0.31 -0.615,0.715 -0.615,1.213c0,0.322 0.049,0.58 0.149,0.773c0.1,0.193 0.277,0.394 0.532,0.602c0.255,0.208 0.605,0.432 1.05,0.672c0.668,0.37 1.141,0.673 1.42,0.91c0.278,0.237 0.483,0.491 0.615,0.76c0.132,0.27 0.198,0.583 0.198,0.941Z" style="fill:#444;fill-rule:nonzero;"/><path d="M298.956,366.144c-1.014,0 -1.805,-0.32 -2.373,-0.962c-0.569,-0.642 -0.853,-1.537 -0.853,-2.685c0,-1.061 0.208,-2.077 0.624,-3.05c0.416,-0.973 0.989,-1.746 1.718,-2.32c0.73,-0.574 1.534,-0.862 2.413,-0.862c0.668,0 1.201,0.179 1.599,0.537c0.399,0.357 0.598,0.843 0.598,1.459c0,1.06 -0.479,1.869 -1.437,2.425c-0.958,0.557 -2.38,0.835 -4.267,0.835l-0.29,0c-0.035,0.258 -0.053,0.545 -0.053,0.862c0,0.966 0.217,1.703 0.651,2.21c0.433,0.507 1.057,0.76 1.872,0.76c0.773,0 1.582,-0.213 2.425,-0.641l0,0.826c-0.82,0.404 -1.696,0.606 -2.627,0.606Zm1.423,-9.123c-0.767,0 -1.481,0.339 -2.14,1.015c-0.659,0.677 -1.135,1.581 -1.428,2.712l0.431,0c3.029,0 4.544,-0.791 4.544,-2.373c0,-0.393 -0.128,-0.716 -0.383,-0.971c-0.255,-0.255 -0.596,-0.383 -1.024,-0.383Z" style="fill:#444;fill-rule:nonzero;"/><path d="M309.256,356.248c0.405,0 0.765,0.041 1.081,0.123l-0.184,0.817c-0.276,-0.088 -0.607,-0.132 -0.993,-0.132c-0.551,0 -1.076,0.188 -1.574,0.563c-0.498,0.375 -0.946,0.937 -1.344,1.687c-0.399,0.75 -0.692,1.562 -0.879,2.435l-0.879,4.228l-0.861,0l2.03,-9.554l0.703,0l-0.255,1.793l0.053,0c0.428,-0.551 0.788,-0.948 1.081,-1.191c0.293,-0.243 0.605,-0.432 0.936,-0.567c0.331,-0.135 0.693,-0.202 1.085,-0.202Z" style="fill:#444;fill-rule:nonzero;"/><path d="M312.025,365.969l-1.512,-9.554l0.888,0l0.949,6.46c0.152,0.967 0.249,1.711 0.29,2.232l0.053,0c0.299,-0.674 0.677,-1.424 1.134,-2.25l3.568,-6.442l0.897,0l-5.274,9.554l-0.993,0Z" style="fill:#444;fill-rule:nonzero;"/><path d="M318.995,365.969l-0.862,0l2.031,-9.554l0.843,0l-2.012,9.554Zm1.547,-12.006c0,-0.323 0.064,-0.58 0.193,-0.774c0.129,-0.193 0.305,-0.29 0.527,-0.29c0.334,0 0.501,0.211 0.501,0.633c0,0.334 -0.064,0.598 -0.193,0.791c-0.129,0.193 -0.296,0.29 -0.501,0.29c-0.17,0 -0.3,-0.057 -0.391,-0.171c-0.091,-0.115 -0.136,-0.274 -0.136,-0.479Z" style="fill:#444;fill-rule:nonzero;"/><path d="M325.833,366.144c-1.02,0 -1.824,-0.323 -2.413,-0.971c-0.589,-0.647 -0.883,-1.545 -0.883,-2.694c0,-1.131 0.215,-2.19 0.646,-3.177c0.43,-0.987 1.012,-1.74 1.744,-2.259c0.733,-0.518 1.582,-0.778 2.549,-0.778c0.785,0 1.491,0.126 2.118,0.378l-0.246,0.791c-0.627,-0.275 -1.265,-0.413 -1.916,-0.413c-0.756,0 -1.437,0.226 -2.043,0.677c-0.607,0.451 -1.083,1.102 -1.429,1.951c-0.345,0.85 -0.518,1.787 -0.518,2.813c0,0.926 0.215,1.639 0.646,2.14c0.431,0.501 1.041,0.751 1.832,0.751c0.416,0 0.802,-0.038 1.156,-0.114c0.355,-0.076 0.74,-0.211 1.156,-0.404l0,0.808c-0.68,0.334 -1.48,0.501 -2.399,0.501Z" style="fill:#444;fill-rule:nonzero;"/><path d="M333.558,366.144c-1.014,0 -1.805,-0.32 -2.373,-0.962c-0.568,-0.642 -0.852,-1.537 -0.852,-2.685c0,-1.061 0.208,-2.077 0.624,-3.05c0.416,-0.973 0.988,-1.746 1.718,-2.32c0.729,-0.574 1.533,-0.862 2.412,-0.862c0.668,0 1.202,0.179 1.6,0.537c0.398,0.357 0.598,0.843 0.598,1.459c0,1.06 -0.479,1.869 -1.437,2.425c-0.958,0.557 -2.381,0.835 -4.267,0.835l-0.29,0c-0.036,0.258 -0.053,0.545 -0.053,0.862c0,0.966 0.217,1.703 0.65,2.21c0.434,0.507 1.058,0.76 1.872,0.76c0.774,0 1.582,-0.213 2.426,-0.641l0,0.826c-0.82,0.404 -1.696,0.606 -2.628,0.606Zm1.424,-9.123c-0.768,0 -1.481,0.339 -2.14,1.015c-0.659,0.677 -1.135,1.581 -1.428,2.712l0.43,0c3.03,0 4.544,-0.791 4.544,-2.373c0,-0.393 -0.127,-0.716 -0.382,-0.971c-0.255,-0.255 -0.596,-0.383 -1.024,-0.383Z" style="fill:#444;fill-rule:nonzero;"/><path d="M349.633,365.969l-0.527,-6.03c-0.082,-1.312 -0.123,-2.091 -0.123,-2.338l-0.053,0c-0.199,0.539 -0.621,1.389 -1.265,2.549l-3.129,5.819l-1.029,0l-0.175,-9.554l0.808,0l0.114,7.216l-0.026,1.38l0.053,0c0.357,-0.786 0.797,-1.656 1.318,-2.611l3.278,-5.985l0.677,0l0.563,5.985c0.082,0.862 0.123,1.732 0.123,2.611l0.052,0l0.211,-0.537l0.888,-2.074l2.813,-5.985l0.843,0l-4.464,9.554l-0.95,0Z" style="fill:#444;fill-rule:nonzero;"/><path d="M356.041,365.969l-0.862,0l2.03,-9.554l0.844,0l-2.012,9.554Zm1.546,-12.006c0,-0.323 0.065,-0.58 0.194,-0.774c0.129,-0.193 0.304,-0.29 0.527,-0.29c0.334,0 0.501,0.211 0.501,0.633c0,0.334 -0.064,0.598 -0.193,0.791c-0.129,0.193 -0.296,0.29 -0.501,0.29c-0.17,0 -0.301,-0.057 -0.391,-0.171c-0.091,-0.115 -0.137,-0.274 -0.137,-0.479Z" style="fill:#444;fill-rule:nonzero;"/><path d="M364.786,356.415l-0.159,0.712l-2.487,0l-1.186,5.581c-0.129,0.58 -0.194,1.06 -0.194,1.441c0,0.815 0.369,1.222 1.108,1.222c0.398,0 0.843,-0.076 1.336,-0.229l0,0.756c-0.592,0.164 -1.09,0.246 -1.495,0.246c-0.58,0 -1.028,-0.159 -1.344,-0.479c-0.317,-0.319 -0.475,-0.783 -0.475,-1.393c0,-0.427 0.085,-1.031 0.255,-1.81l1.134,-5.335l-1.6,0l0.123,-0.589l1.617,-0.149l0.853,-2.224l0.483,0l-0.483,2.25l2.514,0Z" style="fill:#444;fill-rule:nonzero;"/><path d="M370.815,365.969l1.31,-6.082c0.123,-0.539 0.184,-0.997 0.184,-1.372c0,-0.468 -0.127,-0.834 -0.382,-1.098c-0.255,-0.264 -0.649,-0.396 -1.182,-0.396c-0.657,0 -1.273,0.197 -1.85,0.589c-0.578,0.393 -1.064,0.944 -1.459,1.653c-0.396,0.709 -0.699,1.546 -0.91,2.513l-0.897,4.193l-0.861,0l2.918,-13.676l0.844,0l-0.756,3.612c-0.258,1.172 -0.451,1.989 -0.58,2.452l0.053,0c0.457,-0.662 1.003,-1.176 1.639,-1.542c0.635,-0.366 1.308,-0.55 2.017,-0.55c0.726,0 1.289,0.191 1.687,0.572c0.399,0.381 0.598,0.917 0.598,1.608c0,0.41 -0.07,0.944 -0.211,1.6l-1.301,5.924l-0.861,0Z" style="fill:#444;fill-rule:nonzero;"/><path d="M377.67,370.293c-0.281,0 -0.58,-0.056 -0.896,-0.167l0,-0.791c0.31,0.094 0.603,0.14 0.879,0.14c0.515,0 0.908,-0.155 1.178,-0.465c0.269,-0.311 0.489,-0.856 0.659,-1.635l2.162,-10.248l-1.802,0l0.123,-0.589l1.802,-0.123l0.308,-1.406c0.205,-0.985 0.546,-1.7 1.023,-2.145c0.478,-0.445 1.144,-0.668 2,-0.668c0.428,0 0.914,0.091 1.459,0.273l-0.22,0.703c-0.51,-0.158 -0.94,-0.238 -1.292,-0.238c-0.562,0 -1.012,0.157 -1.349,0.471c-0.337,0.313 -0.584,0.836 -0.743,1.568l-0.307,1.442l2.179,0l-0.14,0.712l-2.18,0l-2.215,10.459c-0.193,0.943 -0.498,1.63 -0.914,2.061c-0.416,0.43 -0.987,0.646 -1.714,0.646Z" style="fill:#444;fill-rule:nonzero;"/><path d="M387.25,356.415l-1.335,6.135c-0.129,0.621 -0.194,1.084 -0.194,1.388c0,0.434 0.139,0.778 0.418,1.033c0.278,0.255 0.684,0.382 1.217,0.382c0.644,0 1.252,-0.192 1.824,-0.575c0.571,-0.384 1.051,-0.932 1.441,-1.644c0.39,-0.712 0.681,-1.531 0.875,-2.456l0.922,-4.263l0.862,0l-2.03,9.554l-0.704,0l0.246,-1.802l-0.052,0c-0.979,1.295 -2.159,1.942 -3.542,1.942c-0.768,0 -1.349,-0.181 -1.745,-0.545c-0.395,-0.363 -0.593,-0.893 -0.593,-1.591c0,-0.351 0.064,-0.849 0.193,-1.494l1.319,-6.064l0.878,0Z" style="fill:#444;fill-rule:nonzero;"/><path d="M400.663,365.969l1.309,-6.082c0.123,-0.539 0.185,-0.997 0.185,-1.372c0,-0.468 -0.128,-0.834 -0.383,-1.098c-0.254,-0.264 -0.649,-0.396 -1.182,-0.396c-0.656,0 -1.273,0.197 -1.85,0.589c-0.577,0.393 -1.063,0.942 -1.459,1.648c-0.395,0.706 -0.699,1.546 -0.909,2.518l-0.897,4.193l-0.861,0l2.03,-9.554l0.721,0l-0.325,1.942l0.052,0c0.961,-1.394 2.18,-2.092 3.656,-2.092c0.762,0 1.333,0.188 1.714,0.563c0.381,0.375 0.572,0.914 0.572,1.617c0,0.41 -0.071,0.944 -0.211,1.6l-1.301,5.924l-0.861,0Z" style="fill:#444;fill-rule:nonzero;"/><path d="M409.75,356.265c1.348,0 2.166,0.642 2.453,1.925l0.035,0c0.07,-0.386 0.489,-2.352 1.257,-5.897l0.87,0l-2.901,13.676l-0.72,0l0.395,-2.409l-0.053,0c-1.013,1.723 -2.255,2.584 -3.726,2.584c-1.647,0 -2.47,-1.095 -2.47,-3.287c0,-1.131 0.21,-2.215 0.629,-3.252c0.419,-1.037 0.997,-1.853 1.735,-2.447c0.739,-0.595 1.571,-0.893 2.496,-0.893Zm-2.188,9.088c0.521,0 1.044,-0.183 1.569,-0.549c0.524,-0.366 0.993,-0.858 1.406,-1.477c0.413,-0.618 0.725,-1.294 0.936,-2.03c0.211,-0.735 0.317,-1.349 0.317,-1.841c0,-0.738 -0.181,-1.329 -0.541,-1.771c-0.36,-0.442 -0.854,-0.664 -1.481,-0.664c-0.726,0 -1.383,0.244 -1.969,0.73c-0.586,0.486 -1.066,1.197 -1.441,2.131c-0.375,0.935 -0.563,1.894 -0.563,2.879c0,1.728 0.589,2.592 1.767,2.592Z" style="fill:#444;fill-rule:nonzero;"/><path d="M419.708,356.265c1.36,0 2.177,0.642 2.453,1.925l0.052,0l0.519,-1.775l0.703,0l-2.013,9.554l-0.72,0l0.395,-2.409l-0.053,0c-0.492,0.832 -1.04,1.471 -1.643,1.916c-0.604,0.446 -1.298,0.668 -2.083,0.668c-1.647,0 -2.47,-1.095 -2.47,-3.287c0,-1.154 0.22,-2.256 0.659,-3.304c0.44,-1.049 1.027,-1.859 1.763,-2.431c0.735,-0.571 1.548,-0.857 2.438,-0.857Zm-2.188,9.088c0.522,0 1.042,-0.181 1.56,-0.545c0.519,-0.363 0.984,-0.849 1.398,-1.459c0.413,-0.609 0.728,-1.283 0.944,-2.021c0.217,-0.738 0.326,-1.362 0.326,-1.872c0,-0.463 -0.077,-0.878 -0.229,-1.244c-0.152,-0.366 -0.378,-0.656 -0.677,-0.87c-0.299,-0.214 -0.671,-0.321 -1.116,-0.321c-0.726,0 -1.383,0.241 -1.969,0.721c-0.586,0.481 -1.066,1.2 -1.441,2.158c-0.375,0.958 -0.563,1.911 -0.563,2.861c0,0.89 0.147,1.545 0.44,1.964c0.293,0.419 0.735,0.628 1.327,0.628Z" style="fill:#444;fill-rule:nonzero;"/><path d="M430.159,365.969l1.292,-5.924c0.146,-0.733 0.219,-1.207 0.219,-1.424c0,-1.066 -0.451,-1.6 -1.353,-1.6c-0.621,0 -1.207,0.198 -1.758,0.594c-0.551,0.395 -1.017,0.947 -1.397,1.656c-0.381,0.709 -0.674,1.55 -0.879,2.523l-0.879,4.175l-0.862,0l2.031,-9.554l0.703,0l-0.29,1.846l0.053,0c0.468,-0.663 1,-1.161 1.595,-1.495c0.595,-0.334 1.217,-0.501 1.867,-0.501c0.622,0 1.099,0.197 1.433,0.589c0.334,0.393 0.51,0.964 0.527,1.714l0.053,0c0.451,-0.756 0.982,-1.328 1.591,-1.718c0.609,-0.39 1.26,-0.585 1.951,-0.585c0.686,0 1.22,0.181 1.604,0.541c0.384,0.36 0.576,0.877 0.576,1.551c0,0.17 -0.007,0.336 -0.022,0.497c-0.015,0.161 -0.072,0.511 -0.172,1.05l-1.335,6.065l-0.879,0l1.309,-5.977c0.147,-0.703 0.22,-1.219 0.22,-1.547c0,-0.451 -0.126,-0.801 -0.378,-1.05c-0.252,-0.249 -0.601,-0.374 -1.046,-0.374c-0.92,0 -1.733,0.403 -2.439,1.209c-0.706,0.805 -1.2,1.868 -1.481,3.186l-0.958,4.553l-0.896,0Z" style="fill:#444;fill-rule:nonzero;"/><path d="M443.421,366.144c-1.013,0 -1.804,-0.32 -2.373,-0.962c-0.568,-0.642 -0.852,-1.537 -0.852,-2.685c0,-1.061 0.208,-2.077 0.624,-3.05c0.416,-0.973 0.989,-1.746 1.718,-2.32c0.73,-0.574 1.534,-0.862 2.413,-0.862c0.668,0 1.201,0.179 1.599,0.537c0.399,0.357 0.598,0.843 0.598,1.459c0,1.06 -0.479,1.869 -1.437,2.425c-0.958,0.557 -2.38,0.835 -4.267,0.835l-0.29,0c-0.035,0.258 -0.053,0.545 -0.053,0.862c0,0.966 0.217,1.703 0.65,2.21c0.434,0.507 1.058,0.76 1.873,0.76c0.773,0 1.582,-0.213 2.425,-0.641l0,0.826c-0.82,0.404 -1.696,0.606 -2.628,0.606Zm1.424,-9.123c-0.767,0 -1.481,0.339 -2.14,1.015c-0.659,0.677 -1.135,1.581 -1.428,2.712l0.431,0c3.029,0 4.543,-0.791 4.543,-2.373c0,-0.393 -0.127,-0.716 -0.382,-0.971c-0.255,-0.255 -0.596,-0.383 -1.024,-0.383Z" style="fill:#444;fill-rule:nonzero;"/><path d="M454.17,365.969l1.31,-6.082c0.123,-0.539 0.185,-0.997 0.185,-1.372c0,-0.468 -0.128,-0.834 -0.383,-1.098c-0.255,-0.264 -0.649,-0.396 -1.182,-0.396c-0.656,0 -1.273,0.197 -1.85,0.589c-0.577,0.393 -1.063,0.942 -1.459,1.648c-0.395,0.706 -0.699,1.546 -0.91,2.518l-0.896,4.193l-0.861,0l2.03,-9.554l0.721,0l-0.326,1.942l0.053,0c0.961,-1.394 2.18,-2.092 3.656,-2.092c0.762,0 1.333,0.188 1.714,0.563c0.381,0.375 0.571,0.914 0.571,1.617c0,0.41 -0.07,0.944 -0.21,1.6l-1.301,5.924l-0.862,0Z" style="fill:#444;fill-rule:nonzero;"/><path d="M463.601,356.415l-0.158,0.712l-2.487,0l-1.187,5.581c-0.129,0.58 -0.193,1.06 -0.193,1.441c0,0.815 0.369,1.222 1.107,1.222c0.399,0 0.844,-0.076 1.336,-0.229l0,0.756c-0.592,0.164 -1.09,0.246 -1.494,0.246c-0.58,0 -1.028,-0.159 -1.345,-0.479c-0.316,-0.319 -0.474,-0.783 -0.474,-1.393c0,-0.427 0.085,-1.031 0.254,-1.81l1.134,-5.335l-1.599,0l0.123,-0.589l1.617,-0.149l0.852,-2.224l0.484,0l-0.484,2.25l2.514,0Z" style="fill:#444;fill-rule:nonzero;"/><path d="M468.672,356.265c1.36,0 2.177,0.642 2.453,1.925l0.052,0l0.519,-1.775l0.703,0l-2.013,9.554l-0.72,0l0.395,-2.409l-0.053,0c-0.492,0.832 -1.04,1.471 -1.643,1.916c-0.604,0.446 -1.298,0.668 -2.083,0.668c-1.647,0 -2.47,-1.095 -2.47,-3.287c0,-1.154 0.22,-2.256 0.659,-3.304c0.44,-1.049 1.027,-1.859 1.762,-2.431c0.736,-0.571 1.549,-0.857 2.439,-0.857Zm-2.188,9.088c0.521,0 1.041,-0.181 1.56,-0.545c0.519,-0.363 0.984,-0.849 1.397,-1.459c0.413,-0.609 0.728,-1.283 0.945,-2.021c0.217,-0.738 0.325,-1.362 0.325,-1.872c0,-0.463 -0.076,-0.878 -0.228,-1.244c-0.152,-0.366 -0.378,-0.656 -0.677,-0.87c-0.299,-0.214 -0.671,-0.321 -1.116,-0.321c-0.727,0 -1.383,0.241 -1.969,0.721c-0.586,0.481 -1.066,1.2 -1.441,2.158c-0.375,0.958 -0.563,1.911 -0.563,2.861c0,0.89 0.147,1.545 0.44,1.964c0.293,0.419 0.735,0.628 1.327,0.628Z" style="fill:#444;fill-rule:nonzero;"/><path d="M474.368,365.969l-0.826,0l2.935,-13.676l0.826,0l-2.935,13.676Z" style="fill:#444;fill-rule:nonzero;"/><path d="M480.573,370.293c-0.281,0 -0.58,-0.056 -0.897,-0.167l0,-0.791c0.311,0.094 0.604,0.14 0.879,0.14c0.516,0 0.908,-0.155 1.178,-0.465c0.269,-0.311 0.489,-0.856 0.659,-1.635l2.162,-10.248l-1.802,0l0.123,-0.589l1.802,-0.123l0.308,-1.406c0.205,-0.985 0.546,-1.7 1.024,-2.145c0.477,-0.445 1.144,-0.668 1.999,-0.668c0.428,0 0.914,0.091 1.459,0.273l-0.219,0.703c-0.51,-0.158 -0.941,-0.238 -1.292,-0.238c-0.563,0 -1.013,0.157 -1.35,0.471c-0.336,0.313 -0.584,0.836 -0.742,1.568l-0.308,1.442l2.18,0l-0.141,0.712l-2.179,0l-2.215,10.459c-0.194,0.943 -0.498,1.63 -0.914,2.061c-0.416,0.43 -0.988,0.646 -1.714,0.646Z" style="fill:#444;fill-rule:nonzero;"/><path d="M490.926,366.144c-1.013,0 -1.804,-0.32 -2.373,-0.962c-0.568,-0.642 -0.852,-1.537 -0.852,-2.685c0,-1.061 0.208,-2.077 0.624,-3.05c0.416,-0.973 0.988,-1.746 1.718,-2.32c0.729,-0.574 1.534,-0.862 2.413,-0.862c0.668,0 1.201,0.179 1.599,0.537c0.399,0.357 0.598,0.843 0.598,1.459c0,1.06 -0.479,1.869 -1.437,2.425c-0.958,0.557 -2.381,0.835 -4.267,0.835l-0.29,0c-0.035,0.258 -0.053,0.545 -0.053,0.862c0,0.966 0.217,1.703 0.65,2.21c0.434,0.507 1.058,0.76 1.872,0.76c0.774,0 1.582,-0.213 2.426,-0.641l0,0.826c-0.82,0.404 -1.696,0.606 -2.628,0.606Zm1.424,-9.123c-0.767,0 -1.481,0.339 -2.14,1.015c-0.659,0.677 -1.135,1.581 -1.428,2.712l0.43,0c3.03,0 4.544,-0.791 4.544,-2.373c0,-0.393 -0.127,-0.716 -0.382,-0.971c-0.255,-0.255 -0.596,-0.383 -1.024,-0.383Z" style="fill:#444;fill-rule:nonzero;"/><path d="M500.717,356.265c1.36,0 2.177,0.642 2.452,1.925l0.053,0l0.519,-1.775l0.703,0l-2.013,9.554l-0.721,0l0.396,-2.409l-0.053,0c-0.492,0.832 -1.04,1.471 -1.643,1.916c-0.604,0.446 -1.298,0.668 -2.083,0.668c-1.647,0 -2.47,-1.095 -2.47,-3.287c0,-1.154 0.22,-2.256 0.659,-3.304c0.44,-1.049 1.027,-1.859 1.762,-2.431c0.736,-0.571 1.549,-0.857 2.439,-0.857Zm-2.188,9.088c0.521,0 1.041,-0.181 1.56,-0.545c0.518,-0.363 0.984,-0.849 1.397,-1.459c0.413,-0.609 0.728,-1.283 0.945,-2.021c0.217,-0.738 0.325,-1.362 0.325,-1.872c0,-0.463 -0.076,-0.878 -0.228,-1.244c-0.153,-0.366 -0.378,-0.656 -0.677,-0.87c-0.299,-0.214 -0.671,-0.321 -1.116,-0.321c-0.727,0 -1.383,0.241 -1.969,0.721c-0.586,0.481 -1.066,1.2 -1.441,2.158c-0.375,0.958 -0.563,1.911 -0.563,2.861c0,0.89 0.147,1.545 0.44,1.964c0.293,0.419 0.735,0.628 1.327,0.628Z" style="fill:#444;fill-rule:nonzero;"/><path d="M511.018,356.415l-0.158,0.712l-2.487,0l-1.187,5.581c-0.129,0.58 -0.193,1.06 -0.193,1.441c0,0.815 0.369,1.222 1.107,1.222c0.399,0 0.844,-0.076 1.336,-0.229l0,0.756c-0.592,0.164 -1.09,0.246 -1.494,0.246c-0.58,0 -1.028,-0.159 -1.345,-0.479c-0.316,-0.319 -0.474,-0.783 -0.474,-1.393c0,-0.427 0.085,-1.031 0.254,-1.81l1.134,-5.335l-1.599,0l0.123,-0.589l1.617,-0.149l0.852,-2.224l0.484,0l-0.484,2.25l2.514,0Z" style="fill:#444;fill-rule:nonzero;"/><path d="M513.681,356.415l-1.336,6.135c-0.129,0.621 -0.193,1.084 -0.193,1.388c0,0.434 0.139,0.778 0.417,1.033c0.279,0.255 0.684,0.382 1.218,0.382c0.644,0 1.252,-0.192 1.823,-0.575c0.572,-0.384 1.052,-0.932 1.442,-1.644c0.389,-0.712 0.681,-1.531 0.874,-2.456l0.923,-4.263l0.861,0l-2.03,9.554l-0.703,0l0.246,-1.802l-0.053,0c-0.978,1.295 -2.159,1.942 -3.542,1.942c-0.767,0 -1.349,-0.181 -1.744,-0.545c-0.396,-0.363 -0.593,-0.893 -0.593,-1.591c0,-0.351 0.064,-0.849 0.193,-1.494l1.318,-6.064l0.879,0Z" style="fill:#444;fill-rule:nonzero;"/><path d="M526.645,356.248c0.404,0 0.765,0.041 1.081,0.123l-0.184,0.817c-0.276,-0.088 -0.607,-0.132 -0.994,-0.132c-0.55,0 -1.075,0.188 -1.573,0.563c-0.498,0.375 -0.946,0.937 -1.345,1.687c-0.398,0.75 -0.691,1.562 -0.879,2.435l-0.878,4.228l-0.862,0l2.031,-9.554l0.703,0l-0.255,1.793l0.052,0c0.428,-0.551 0.789,-0.948 1.082,-1.191c0.293,-0.243 0.605,-0.432 0.936,-0.567c0.331,-0.135 0.692,-0.202 1.085,-0.202Z" style="fill:#444;fill-rule:nonzero;"/><path d="M530.75,366.144c-1.014,0 -1.805,-0.32 -2.374,-0.962c-0.568,-0.642 -0.852,-1.537 -0.852,-2.685c0,-1.061 0.208,-2.077 0.624,-3.05c0.416,-0.973 0.989,-1.746 1.718,-2.32c0.73,-0.574 1.534,-0.862 2.413,-0.862c0.668,0 1.201,0.179 1.599,0.537c0.399,0.357 0.598,0.843 0.598,1.459c0,1.06 -0.479,1.869 -1.437,2.425c-0.958,0.557 -2.38,0.835 -4.267,0.835l-0.29,0c-0.035,0.258 -0.053,0.545 -0.053,0.862c0,0.966 0.217,1.703 0.651,2.21c0.433,0.507 1.057,0.76 1.872,0.76c0.773,0 1.582,-0.213 2.425,-0.641l0,0.826c-0.82,0.404 -1.696,0.606 -2.627,0.606Zm1.423,-9.123c-0.767,0 -1.481,0.339 -2.14,1.015c-0.659,0.677 -1.135,1.581 -1.428,2.712l0.431,0c3.029,0 4.544,-0.791 4.544,-2.373c0,-0.393 -0.128,-0.716 -0.383,-0.971c-0.255,-0.255 -0.596,-0.383 -1.024,-0.383Z" style="fill:#444;fill-rule:nonzero;"/><path d="M541.05,363.376c0,0.844 -0.301,1.516 -0.905,2.017c-0.603,0.501 -1.424,0.751 -2.461,0.751c-1.014,0 -1.907,-0.219 -2.681,-0.659l0,-0.94c0.434,0.269 0.882,0.477 1.345,0.624c0.463,0.146 0.897,0.22 1.301,0.22c0.809,0 1.427,-0.169 1.854,-0.506c0.428,-0.337 0.642,-0.816 0.642,-1.437c0,-0.246 -0.045,-0.463 -0.136,-0.65c-0.091,-0.188 -0.238,-0.368 -0.44,-0.541c-0.202,-0.173 -0.59,-0.423 -1.164,-0.751c-0.867,-0.469 -1.453,-0.895 -1.758,-1.279c-0.305,-0.384 -0.457,-0.851 -0.457,-1.402c0,-0.75 0.289,-1.364 0.866,-1.841c0.577,-0.478 1.337,-0.717 2.28,-0.717c0.44,0 0.904,0.052 1.393,0.154c0.49,0.103 0.901,0.239 1.235,0.409l-0.307,0.773c-0.797,-0.375 -1.571,-0.562 -2.321,-0.562c-0.679,0 -1.224,0.155 -1.634,0.466c-0.41,0.31 -0.616,0.715 -0.616,1.213c0,0.322 0.05,0.58 0.15,0.773c0.099,0.193 0.277,0.394 0.532,0.602c0.254,0.208 0.605,0.432 1.05,0.672c0.668,0.37 1.141,0.673 1.419,0.91c0.279,0.237 0.484,0.491 0.616,0.76c0.131,0.27 0.197,0.583 0.197,0.941Z" style="fill:#444;fill-rule:nonzero;"/><path d="M547.809,356.415l0.879,0l0.721,4.816c0.299,2.057 0.46,3.372 0.483,3.947l0.097,0c0.252,-0.616 0.797,-1.691 1.635,-3.226l3.058,-5.537l0.905,0l-6.266,11.338c-0.422,0.744 -0.781,1.265 -1.077,1.564c-0.296,0.299 -0.63,0.536 -1.002,0.712c-0.372,0.176 -0.801,0.264 -1.287,0.264c-0.399,0 -0.777,-0.062 -1.134,-0.185l0,-0.808c0.416,0.158 0.817,0.237 1.204,0.237c0.469,0 0.899,-0.145 1.292,-0.435c0.392,-0.29 0.773,-0.772 1.142,-1.446c0.37,-0.674 0.663,-1.213 0.879,-1.617l-1.529,-9.624Z" style="fill:#444;fill-rule:nonzero;"/><path d="M560.518,356.23c1.055,0 1.871,0.318 2.448,0.954c0.577,0.636 0.866,1.513 0.866,2.632c0,1.155 -0.21,2.234 -0.629,3.239c-0.419,1.005 -0.992,1.771 -1.718,2.298c-0.727,0.528 -1.565,0.791 -2.514,0.791c-1.078,0 -1.897,-0.32 -2.456,-0.962c-0.56,-0.642 -0.84,-1.56 -0.84,-2.755c0,-1.12 0.214,-2.168 0.642,-3.147c0.428,-0.978 1.005,-1.731 1.731,-2.259c0.727,-0.527 1.55,-0.791 2.47,-0.791Zm-0.07,0.756c-0.727,0 -1.38,0.23 -1.96,0.69c-0.58,0.46 -1.043,1.119 -1.389,1.978c-0.346,0.858 -0.518,1.768 -0.518,2.729c0,2.004 0.826,3.006 2.478,3.006c0.744,0 1.405,-0.228 1.982,-0.682c0.577,-0.454 1.037,-1.122 1.38,-2.004c0.343,-0.881 0.514,-1.85 0.514,-2.904c0,-0.903 -0.214,-1.597 -0.642,-2.083c-0.427,-0.487 -1.043,-0.73 -1.845,-0.73Z" style="fill:#444;fill-rule:nonzero;"/><path d="M568.042,356.415l-1.336,6.135c-0.129,0.621 -0.194,1.084 -0.194,1.388c0,0.434 0.139,0.778 0.418,1.033c0.278,0.255 0.684,0.382 1.217,0.382c0.645,0 1.252,-0.192 1.824,-0.575c0.571,-0.384 1.051,-0.932 1.441,-1.644c0.39,-0.712 0.681,-1.531 0.875,-2.456l0.922,-4.263l0.862,0l-2.03,9.554l-0.704,0l0.246,-1.802l-0.052,0c-0.979,1.295 -2.159,1.942 -3.542,1.942c-0.768,0 -1.349,-0.181 -1.745,-0.545c-0.395,-0.363 -0.593,-0.893 -0.593,-1.591c0,-0.351 0.064,-0.849 0.193,-1.494l1.319,-6.064l0.879,0Z" style="fill:#444;fill-rule:nonzero;"/><path d="M586.129,365.969l1.31,-6.082c0.123,-0.539 0.185,-0.997 0.185,-1.372c0,-0.468 -0.128,-0.834 -0.383,-1.098c-0.255,-0.264 -0.649,-0.396 -1.182,-0.396c-0.656,0 -1.273,0.197 -1.85,0.589c-0.577,0.393 -1.063,0.942 -1.459,1.648c-0.396,0.706 -0.699,1.546 -0.91,2.518l-0.896,4.193l-0.861,0l2.03,-9.554l0.72,0l-0.325,1.942l0.053,0c0.961,-1.394 2.18,-2.092 3.656,-2.092c0.762,0 1.333,0.188 1.714,0.563c0.381,0.375 0.571,0.914 0.571,1.617c0,0.41 -0.07,0.944 -0.21,1.6l-1.301,5.924l-0.862,0Z" style="fill:#444;fill-rule:nonzero;"/><path d="M593.583,366.144c-1.014,0 -1.805,-0.32 -2.374,-0.962c-0.568,-0.642 -0.852,-1.537 -0.852,-2.685c0,-1.061 0.208,-2.077 0.624,-3.05c0.416,-0.973 0.989,-1.746 1.718,-2.32c0.73,-0.574 1.534,-0.862 2.413,-0.862c0.668,0 1.201,0.179 1.599,0.537c0.399,0.357 0.598,0.843 0.598,1.459c0,1.06 -0.479,1.869 -1.437,2.425c-0.958,0.557 -2.38,0.835 -4.267,0.835l-0.29,0c-0.035,0.258 -0.053,0.545 -0.053,0.862c0,0.966 0.217,1.703 0.651,2.21c0.433,0.507 1.057,0.76 1.872,0.76c0.773,0 1.582,-0.213 2.425,-0.641l0,0.826c-0.82,0.404 -1.696,0.606 -2.627,0.606Zm1.423,-9.123c-0.767,0 -1.481,0.339 -2.14,1.015c-0.659,0.677 -1.135,1.581 -1.428,2.712l0.431,0c3.029,0 4.544,-0.791 4.544,-2.373c0,-0.393 -0.128,-0.716 -0.383,-0.971c-0.255,-0.255 -0.596,-0.383 -1.024,-0.383Z" style="fill:#444;fill-rule:nonzero;"/><path d="M601.739,366.144c-1.014,0 -1.805,-0.32 -2.373,-0.962c-0.569,-0.642 -0.853,-1.537 -0.853,-2.685c0,-1.061 0.208,-2.077 0.624,-3.05c0.416,-0.973 0.989,-1.746 1.718,-2.32c0.73,-0.574 1.534,-0.862 2.413,-0.862c0.668,0 1.201,0.179 1.6,0.537c0.398,0.357 0.597,0.843 0.597,1.459c0,1.06 -0.479,1.869 -1.437,2.425c-0.958,0.557 -2.38,0.835 -4.267,0.835l-0.29,0c-0.035,0.258 -0.053,0.545 -0.053,0.862c0,0.966 0.217,1.703 0.651,2.21c0.433,0.507 1.057,0.76 1.872,0.76c0.773,0 1.582,-0.213 2.426,-0.641l0,0.826c-0.821,0.404 -1.697,0.606 -2.628,0.606Zm1.424,-9.123c-0.768,0 -1.481,0.339 -2.141,1.015c-0.659,0.677 -1.135,1.581 -1.428,2.712l0.431,0c3.029,0 4.544,-0.791 4.544,-2.373c0,-0.393 -0.128,-0.716 -0.382,-0.971c-0.255,-0.255 -0.597,-0.383 -1.024,-0.383Z" style="fill:#444;fill-rule:nonzero;"/><path d="M611.53,356.265c1.347,0 2.165,0.642 2.452,1.925l0.035,0c0.07,-0.386 0.489,-2.352 1.257,-5.897l0.87,0l-2.9,13.676l-0.721,0l0.395,-2.409l-0.052,0c-1.014,1.723 -2.256,2.584 -3.727,2.584c-1.646,0 -2.47,-1.095 -2.47,-3.287c0,-1.131 0.21,-2.215 0.629,-3.252c0.419,-1.037 0.997,-1.853 1.736,-2.447c0.738,-0.595 1.57,-0.893 2.496,-0.893Zm-2.189,9.088c0.522,0 1.045,-0.183 1.569,-0.549c0.525,-0.366 0.993,-0.858 1.406,-1.477c0.413,-0.618 0.726,-1.294 0.936,-2.03c0.211,-0.735 0.317,-1.349 0.317,-1.841c0,-0.738 -0.18,-1.329 -0.541,-1.771c-0.36,-0.442 -0.854,-0.664 -1.481,-0.664c-0.726,0 -1.382,0.244 -1.968,0.73c-0.586,0.486 -1.067,1.197 -1.442,2.131c-0.375,0.935 -0.562,1.894 -0.562,2.879c0,1.728 0.589,2.592 1.766,2.592Z" style="fill:#444;fill-rule:nonzero;"/><path d="M619.255,370.293c-0.281,0 -0.58,-0.056 -0.896,-0.167l0,-0.791c0.31,0.094 0.603,0.14 0.879,0.14c0.515,0 0.908,-0.155 1.178,-0.465c0.269,-0.311 0.489,-0.856 0.659,-1.635l2.162,-10.248l-1.802,0l0.123,-0.589l1.802,-0.123l0.307,-1.406c0.206,-0.985 0.547,-1.7 1.024,-2.145c0.478,-0.445 1.144,-0.668 2,-0.668c0.428,0 0.914,0.091 1.459,0.273l-0.22,0.703c-0.51,-0.158 -0.94,-0.238 -1.292,-0.238c-0.562,0 -1.012,0.157 -1.349,0.471c-0.337,0.313 -0.584,0.836 -0.743,1.568l-0.307,1.442l2.179,0l-0.14,0.712l-2.18,0l-2.215,10.459c-0.193,0.943 -0.498,1.63 -0.914,2.061c-0.416,0.43 -0.987,0.646 -1.714,0.646Z" style="fill:#444;fill-rule:nonzero;"/><path d="M631.191,356.23c1.055,0 1.871,0.318 2.448,0.954c0.577,0.636 0.865,1.513 0.865,2.632c0,1.155 -0.209,2.234 -0.628,3.239c-0.419,1.005 -0.992,1.771 -1.718,2.298c-0.727,0.528 -1.565,0.791 -2.514,0.791c-1.078,0 -1.897,-0.32 -2.457,-0.962c-0.559,-0.642 -0.839,-1.56 -0.839,-2.755c0,-1.12 0.214,-2.168 0.642,-3.147c0.427,-0.978 1.005,-1.731 1.731,-2.259c0.727,-0.527 1.55,-0.791 2.47,-0.791Zm-0.07,0.756c-0.727,0 -1.38,0.23 -1.96,0.69c-0.58,0.46 -1.043,1.119 -1.389,1.978c-0.346,0.858 -0.519,1.768 -0.519,2.729c0,2.004 0.827,3.006 2.479,3.006c0.744,0 1.405,-0.228 1.982,-0.682c0.577,-0.454 1.037,-1.122 1.38,-2.004c0.343,-0.881 0.514,-1.85 0.514,-2.904c0,-0.903 -0.214,-1.597 -0.642,-2.083c-0.427,-0.487 -1.043,-0.73 -1.845,-0.73Z" style="fill:#444;fill-rule:nonzero;"/><path d="M641.632,356.248c0.405,0 0.765,0.041 1.081,0.123l-0.184,0.817c-0.276,-0.088 -0.607,-0.132 -0.993,-0.132c-0.551,0 -1.076,0.188 -1.574,0.563c-0.498,0.375 -0.946,0.937 -1.344,1.687c-0.399,0.75 -0.692,1.562 -0.879,2.435l-0.879,4.228l-0.861,0l2.03,-9.554l0.703,0l-0.255,1.793l0.053,0c0.428,-0.551 0.788,-0.948 1.081,-1.191c0.293,-0.243 0.605,-0.432 0.936,-0.567c0.331,-0.135 0.693,-0.202 1.085,-0.202Z" style="fill:#444;fill-rule:nonzero;"/><path d="M647.732,356.415l0.879,0l0.721,4.816c0.298,2.057 0.46,3.372 0.483,3.947l0.097,0c0.252,-0.616 0.796,-1.691 1.634,-3.226l3.059,-5.537l0.905,0l-6.266,11.338c-0.422,0.744 -0.781,1.265 -1.077,1.564c-0.296,0.299 -0.63,0.536 -1.002,0.712c-0.372,0.176 -0.801,0.264 -1.288,0.264c-0.398,0 -0.776,-0.062 -1.133,-0.185l0,-0.808c0.416,0.158 0.817,0.237 1.204,0.237c0.469,0 0.899,-0.145 1.292,-0.435c0.392,-0.29 0.773,-0.772 1.142,-1.446c0.369,-0.674 0.662,-1.213 0.879,-1.617l-1.529,-9.624Z" style="fill:#444;fill-rule:nonzero;"/><path d="M660.441,356.23c1.055,0 1.871,0.318 2.448,0.954c0.577,0.636 0.865,1.513 0.865,2.632c0,1.155 -0.209,2.234 -0.628,3.239c-0.419,1.005 -0.992,1.771 -1.718,2.298c-0.727,0.528 -1.565,0.791 -2.514,0.791c-1.078,0 -1.897,-0.32 -2.457,-0.962c-0.559,-0.642 -0.839,-1.56 -0.839,-2.755c0,-1.12 0.214,-2.168 0.642,-3.147c0.427,-0.978 1.005,-1.731 1.731,-2.259c0.727,-0.527 1.55,-0.791 2.47,-0.791Zm-0.07,0.756c-0.727,0 -1.38,0.23 -1.96,0.69c-0.58,0.46 -1.043,1.119 -1.389,1.978c-0.346,0.858 -0.519,1.768 -0.519,2.729c0,2.004 0.827,3.006 2.479,3.006c0.744,0 1.405,-0.228 1.982,-0.682c0.577,-0.454 1.037,-1.122 1.38,-2.004c0.343,-0.881 0.514,-1.85 0.514,-2.904c0,-0.903 -0.214,-1.597 -0.642,-2.083c-0.427,-0.487 -1.043,-0.73 -1.845,-0.73Z" style="fill:#444;fill-rule:nonzero;"/><path d="M667.964,356.415l-1.336,6.135c-0.128,0.621 -0.193,1.084 -0.193,1.388c0,0.434 0.139,0.778 0.418,1.033c0.278,0.255 0.684,0.382 1.217,0.382c0.644,0 1.252,-0.192 1.824,-0.575c0.571,-0.384 1.051,-0.932 1.441,-1.644c0.39,-0.712 0.681,-1.531 0.874,-2.456l0.923,-4.263l0.862,0l-2.031,9.554l-0.703,0l0.246,-1.802l-0.052,0c-0.979,1.295 -2.16,1.942 -3.542,1.942c-0.768,0 -1.35,-0.181 -1.745,-0.545c-0.396,-0.363 -0.593,-0.893 -0.593,-1.591c0,-0.351 0.064,-0.849 0.193,-1.494l1.318,-6.064l0.879,0Z" style="fill:#444;fill-rule:nonzero;"/><path d="M680.928,356.248c0.405,0 0.765,0.041 1.081,0.123l-0.184,0.817c-0.276,-0.088 -0.607,-0.132 -0.993,-0.132c-0.551,0 -1.076,0.188 -1.574,0.563c-0.498,0.375 -0.946,0.937 -1.344,1.687c-0.399,0.75 -0.692,1.562 -0.879,2.435l-0.879,4.228l-0.862,0l2.031,-9.554l0.703,0l-0.255,1.793l0.053,0c0.427,-0.551 0.788,-0.948 1.081,-1.191c0.293,-0.243 0.605,-0.432 0.936,-0.567c0.331,-0.135 0.693,-0.202 1.085,-0.202Z" style="fill:#444;fill-rule:nonzero;"/><path d="M690.324,366.109c-1.348,0 -2.165,-0.641 -2.452,-1.925l-0.036,0c-0.076,0.422 -0.512,2.458 -1.309,6.109l-0.87,0l2.953,-13.878l0.721,0l-0.396,2.408l0.053,0c0.533,-0.896 1.106,-1.553 1.718,-1.969c0.612,-0.416 1.282,-0.624 2.008,-0.624c0.791,0 1.401,0.271 1.828,0.813c0.428,0.542 0.642,1.37 0.642,2.483c0,1.143 -0.211,2.23 -0.633,3.261c-0.422,1.031 -1,1.843 -1.736,2.435c-0.735,0.591 -1.565,0.887 -2.491,0.887Zm2.197,-9.088c-0.51,0 -1.02,0.172 -1.529,0.514c-0.51,0.343 -0.983,0.834 -1.42,1.473c-0.436,0.638 -0.76,1.334 -0.971,2.087c-0.211,0.753 -0.316,1.364 -0.316,1.833c0,0.732 0.18,1.319 0.54,1.762c0.361,0.442 0.854,0.663 1.481,0.663c0.727,0 1.386,-0.246 1.978,-0.738c0.591,-0.492 1.072,-1.205 1.441,-2.14c0.369,-0.935 0.554,-1.888 0.554,-2.861c0,-1.728 -0.586,-2.593 -1.758,-2.593Z" style="fill:#444;fill-rule:nonzero;"/><path d="M702.312,356.248c0.404,0 0.765,0.041 1.081,0.123l-0.185,0.817c-0.275,-0.088 -0.606,-0.132 -0.993,-0.132c-0.55,0 -1.075,0.188 -1.573,0.563c-0.498,0.375 -0.946,0.937 -1.345,1.687c-0.398,0.75 -0.691,1.562 -0.879,2.435l-0.878,4.228l-0.862,0l2.03,-9.554l0.704,0l-0.255,1.793l0.052,0c0.428,-0.551 0.789,-0.948 1.082,-1.191c0.292,-0.243 0.605,-0.432 0.936,-0.567c0.331,-0.135 0.692,-0.202 1.085,-0.202Z" style="fill:#444;fill-rule:nonzero;"/><path d="M707.999,356.23c1.054,0 1.87,0.318 2.447,0.954c0.577,0.636 0.866,1.513 0.866,2.632c0,1.155 -0.209,2.234 -0.628,3.239c-0.419,1.005 -0.992,1.771 -1.719,2.298c-0.726,0.528 -1.564,0.791 -2.513,0.791c-1.078,0 -1.897,-0.32 -2.457,-0.962c-0.559,-0.642 -0.839,-1.56 -0.839,-2.755c0,-1.12 0.214,-2.168 0.641,-3.147c0.428,-0.978 1.005,-1.731 1.732,-2.259c0.726,-0.527 1.55,-0.791 2.47,-0.791Zm-0.071,0.756c-0.726,0 -1.38,0.23 -1.96,0.69c-0.58,0.46 -1.043,1.119 -1.388,1.978c-0.346,0.858 -0.519,1.768 -0.519,2.729c0,2.004 0.826,3.006 2.479,3.006c0.744,0 1.404,-0.228 1.981,-0.682c0.578,-0.454 1.038,-1.122 1.38,-2.004c0.343,-0.881 0.515,-1.85 0.515,-2.904c0,-0.903 -0.214,-1.597 -0.642,-2.083c-0.428,-0.487 -1.043,-0.73 -1.846,-0.73Z" style="fill:#444;fill-rule:nonzero;"/><path d="M710.714,370.293c-0.363,0 -0.694,-0.056 -0.993,-0.167l0,-0.809c0.276,0.129 0.607,0.194 0.993,0.194c0.481,0 0.857,-0.151 1.13,-0.453c0.272,-0.302 0.485,-0.822 0.637,-1.56l2.338,-11.083l0.844,0l-2.356,11.171c-0.205,0.967 -0.517,1.659 -0.936,2.078c-0.419,0.419 -0.971,0.629 -1.657,0.629Zm4.536,-16.33c0,-0.323 0.064,-0.58 0.193,-0.774c0.129,-0.193 0.305,-0.29 0.527,-0.29c0.334,0 0.501,0.211 0.501,0.633c0,0.334 -0.064,0.598 -0.193,0.791c-0.129,0.193 -0.296,0.29 -0.501,0.29c-0.17,0 -0.3,-0.057 -0.391,-0.171c-0.091,-0.115 -0.136,-0.274 -0.136,-0.479Z" style="fill:#444;fill-rule:nonzero;"/><path d="M720.47,366.144c-1.013,0 -1.804,-0.32 -2.373,-0.962c-0.568,-0.642 -0.852,-1.537 -0.852,-2.685c0,-1.061 0.208,-2.077 0.624,-3.05c0.416,-0.973 0.988,-1.746 1.718,-2.32c0.729,-0.574 1.534,-0.862 2.413,-0.862c0.667,0 1.201,0.179 1.599,0.537c0.399,0.357 0.598,0.843 0.598,1.459c0,1.06 -0.479,1.869 -1.437,2.425c-0.958,0.557 -2.381,0.835 -4.267,0.835l-0.29,0c-0.036,0.258 -0.053,0.545 -0.053,0.862c0,0.966 0.217,1.703 0.65,2.21c0.434,0.507 1.058,0.76 1.872,0.76c0.774,0 1.582,-0.213 2.426,-0.641l0,0.826c-0.82,0.404 -1.696,0.606 -2.628,0.606Zm1.424,-9.123c-0.768,0 -1.481,0.339 -2.14,1.015c-0.659,0.677 -1.135,1.581 -1.428,2.712l0.43,0c3.03,0 4.544,-0.791 4.544,-2.373c0,-0.393 -0.127,-0.716 -0.382,-0.971c-0.255,-0.255 -0.596,-0.383 -1.024,-0.383Z" style="fill:#444;fill-rule:nonzero;"/><path d="M728.697,366.144c-1.02,0 -1.824,-0.323 -2.413,-0.971c-0.589,-0.647 -0.883,-1.545 -0.883,-2.694c0,-1.131 0.215,-2.19 0.646,-3.177c0.431,-0.987 1.012,-1.74 1.745,-2.259c0.732,-0.518 1.582,-0.778 2.548,-0.778c0.785,0 1.492,0.126 2.118,0.378l-0.246,0.791c-0.627,-0.275 -1.265,-0.413 -1.916,-0.413c-0.755,0 -1.437,0.226 -2.043,0.677c-0.607,0.451 -1.083,1.102 -1.428,1.951c-0.346,0.85 -0.519,1.787 -0.519,2.813c0,0.926 0.215,1.639 0.646,2.14c0.431,0.501 1.042,0.751 1.833,0.751c0.416,0 0.801,-0.038 1.155,-0.114c0.355,-0.076 0.74,-0.211 1.156,-0.404l0,0.808c-0.679,0.334 -1.479,0.501 -2.399,0.501Z" style="fill:#444;fill-rule:nonzero;"/><path d="M738.4,356.415l-0.158,0.712l-2.488,0l-1.186,5.581c-0.129,0.58 -0.193,1.06 -0.193,1.441c0,0.815 0.369,1.222 1.107,1.222c0.398,0 0.844,-0.076 1.336,-0.229l0,0.756c-0.592,0.164 -1.09,0.246 -1.494,0.246c-0.58,0 -1.029,-0.159 -1.345,-0.479c-0.316,-0.319 -0.475,-0.783 -0.475,-1.393c0,-0.427 0.085,-1.031 0.255,-1.81l1.134,-5.335l-1.6,0l0.124,-0.589l1.617,-0.149l0.852,-2.224l0.484,0l-0.484,2.25l2.514,0Z" style="fill:#444;fill-rule:nonzero;"/><path d="M738.435,365.485c0,-0.328 0.073,-0.587 0.22,-0.778c0.146,-0.19 0.348,-0.285 0.606,-0.285c0.387,0 0.58,0.211 0.58,0.633c0,0.31 -0.073,0.566 -0.219,0.769c-0.147,0.202 -0.343,0.303 -0.589,0.303c-0.399,0 -0.598,-0.214 -0.598,-0.642Z" style="fill:#444;fill-rule:nonzero;"/><path d="M742.698,365.485c0,-0.328 0.073,-0.587 0.219,-0.778c0.147,-0.19 0.349,-0.285 0.607,-0.285c0.387,0 0.58,0.211 0.58,0.633c0,0.31 -0.073,0.566 -0.22,0.769c-0.146,0.202 -0.342,0.303 -0.589,0.303c-0.398,0 -0.597,-0.214 -0.597,-0.642Z" style="fill:#444;fill-rule:nonzero;"/><path d="M746.96,365.485c0,-0.328 0.074,-0.587 0.22,-0.778c0.147,-0.19 0.349,-0.285 0.607,-0.285c0.386,0 0.58,0.211 0.58,0.633c0,0.31 -0.074,0.566 -0.22,0.769c-0.147,0.202 -0.343,0.303 -0.589,0.303c-0.398,0 -0.598,-0.214 -0.598,-0.642Z" style="fill:#444;fill-rule:nonzero;"/></svg>